<?xml version="1.0"?>
<svg width="400" height="400" xmlns="http://www.w3.org/2000/svg" xmlns:svg="http://www.w3.org/2000/svg" style="transition: none;" version="1.1">

 <g class="layer">
  <title>Layer 1</title>
  <g id="svg_1">
   <path class="cls-94" d="m236.46,22.65c11.13,-1.24 34.37,1.61 50.69,8.04c12.86,5.44 17.8,14.96 16.07,23.49c-4.82,24.23 -11.62,47.97 -20.4,71.09c-10.76,28.81 -21.39,57.74 -32.15,86.55c-2.6,10.39 0.12,22.38 2.47,33.38c5.19,26.83 10.63,53.66 16.07,80.37c7.29,35.49 -6.92,55.14 -42.66,58.73c-24.73,3.96 -40.18,-6.06 -46.37,-30.29c-5.19,-29.43 -8.9,-59.1 -11.13,-89.02c-1.98,-10.88 -4.45,-21.51 -7.42,-32.15c-2.23,-5.32 -5.19,-10.26 -8.66,-14.84c-26.95,-29.8 -52.55,-60.71 -76.66,-92.73c-11.5,-17.31 -10.76,-33.75 2.47,-49.46c10.63,-10.39 22.75,-18.42 36.47,-24.11c13.23,-3.71 24.48,-0.62 34,9.27c9.89,13.97 17.93,28.69 26.58,44.39c5.44,9.15 10.39,17.06 17.31,24.85c5.07,-22.5 9.4,-45.13 12.98,-68c2.1,-11.75 7.05,-23.62 14.22,-31.53c3.21,-3.21 8.04,-7.05 16.07,-8.04z" fill="#0d0b0a" fill-rule="evenodd" id="svg_2"/>
   <path class="cls-75" d="m290.49,46.52l0.12,0c-9.03,-8.78 -20.77,-12.49 -33.38,-14.1c-6.43,-0.99 -13.35,-1.24 -17.31,-0.25c-4.08,1.11 -11.25,2.72 -15.08,11c-0.99,1.48 -3.83,8.9 -5.69,17.31c-1.24,5.56 -3.21,16.44 -4.7,25.1c-1.48,8.66 -2.47,11.99 -2.47,11.99c-0.62,2.35 -1.24,6.8 -2.23,11.75c-2.35,12.61 -5.32,29.8 -6.43,33.63c-0.87,3.46 -3.09,8.28 -4.95,9.27c-1.85,0.62 -2.97,0 -4.33,-1.85c-8.53,-10.88 -16.82,-22.13 -24.36,-33.63c-9.27,-16.44 -25.47,-45.87 -27.57,-47.97c-10.14,-12.12 -21.51,-13.11 -34,-3.09c-11.75,6.8 -26.09,20.52 -27.82,27.82c-1.73,7.29 1.61,14.71 6.18,21.02c23.74,30.42 48.47,60.09 74.19,89.02c11.62,13.85 18.18,29.92 19.78,48.22c2.6,28.07 5.81,56.13 9.89,84.08c0.99,8.66 3.46,16.94 7.42,24.73c5.44,9.27 15.08,9.52 26.58,8.04c29.06,-3.96 39.32,-16.2 32.77,-43.89c-6.55,-31.65 -12.74,-63.43 -18.55,-95.21c-0.87,-7.79 -2.47,-15.58 0,-23.49c12.74,-34.99 25.59,-70.11 38.33,-105.1c5.44,-15.95 10.14,-29.3 14.59,-45.62c1.36,-4.45 0.49,-7.17 -0.99,-8.78z" fill="#f38827" fill-rule="evenodd" id="svg_3"/>
   <path class="cls-46" d="m332.55,76.14c7.29,-1.73 19.78,3.34 27.82,9.89c3.59,3.96 0.87,11.5 -4.33,16.07c-2.23,1.61 -4.82,1.48 -7.42,0.62c-7.42,-3.59 -19.78,-10.26 -20.4,-12.98c-1.36,-5.56 0,-12.49 4.33,-13.6z" fill="#111210" fill-rule="evenodd" id="svg_26"/>
   <path class="cls-73" d="m333.78,81.08c1.61,-2.6 16.69,3.46 22.26,10.51c1.48,2.1 -2.35,7.54 -3.71,6.8c-1.73,-1.24 -16.32,-8.41 -17.31,-9.27c-2.72,-2.35 -3.09,-5.07 -1.24,-8.04z" fill="#6eb774" fill-rule="evenodd" id="svg_27"/>
   <path class="cls-36" d="m103.61,335.41c1.36,0 2.6,0 3.71,0.62c5.93,6.68 13.35,10.76 22.26,12.36c1.61,11.13 -3.34,15.7 -14.84,13.6c-7.05,-2.47 -12.98,-6.43 -17.93,-11.75c-1.36,-6.68 0.87,-11.62 6.8,-14.84z" fill="#141213" fill-rule="evenodd" id="svg_29"/>
   <path class="cls-35" d="m103.61,341.59c1.36,0 2.6,0 3.71,0.62c4.95,5.81 11.13,9.52 18.55,11.13c-1.61,3.96 -4.57,5.19 -8.66,3.71c-6.92,-1.61 -12.24,-5.32 -16.07,-11.13c0.62,-1.61 1.36,-3.09 2.47,-4.33z" fill="#a2559d" fill-rule="evenodd" id="svg_30"/>
   <path class="cls-56" d="m177.11,41.2c10.26,0.62 16.2,8.53 14.22,16.07c-2.47,6.68 -7.67,9.52 -14.22,6.8c-5.81,-2.72 -8.16,-15.46 0,-22.87z" fill="#161614" fill-rule="evenodd" id="svg_33"/>
   <path class="cls-55" d="m136.68,276.38c9.52,-1.61 15.46,7.05 8.66,14.22c-5.69,5.56 -14.59,1.73 -12.98,-9.27c0.74,-3.46 1.36,-4.45 4.33,-4.95z" fill="#11110e" fill-rule="evenodd" id="svg_40"/>
   <path class="cls-81" d="m178.35,46.15c8.04,1.61 11.62,9.64 6.18,12.98c-4.95,2.35 -10.14,-2.84 -8.04,-10.51c0.74,-2.1 0.99,-2.6 1.85,-2.47z" fill="#c7cf49" fill-rule="evenodd" id="svg_44"/>
   <path class="cls-29" d="m33.54,271.25c1.85,-1.85 6.06,-0.74 8.66,0.37c1.48,0.74 5.07,2.72 7.29,4.45s5.32,3.83 5.56,6.06c1.36,10.14 -4.95,15.46 -14.22,12.74c-12.24,-5.56 -14.22,-16.2 -7.29,-23.62z" fill="#121415" fill-rule="evenodd" id="svg_52"/>
   <path class="cls-63" d="m35.64,276.44c0.25,-0.49 0.99,-0.62 1.48,-0.49c3.96,1.36 7.79,4.08 11,6.92c3.59,4.33 2.1,8.16 -3.09,8.04c-7.67,-0.87 -11.75,-6.31 -9.4,-14.47l0,0z" fill="#46a0d6" fill-rule="evenodd" id="svg_53"/>
   <path class="cls-84" d="m136.82,280.77c2.19,-2.06 6.79,-0.72 7.67,0.52c1.87,3.2 1.32,5.68 -2.19,7.23c-6.9,2.28 -9.76,-3.62 -5.48,-7.75z" fill="#e6c05e" fill-rule="evenodd" id="svg_58"/>
   <path class="cls-118" d="m332.41,139.14c3.46,-2.1 19.41,5.69 14.22,18.55c-2.72,5.44 -7.17,7.79 -12.98,5.56c-6.8,-3.59 -9.15,-9.15 -6.8,-16.69c0.99,-3.21 2.84,-5.69 5.56,-7.42z" fill="#111313" fill-rule="evenodd" id="svg_59"/>
   <path class="cls-47" d="m333.4,144.45c3.09,-0.49 5.44,0.99 7.67,3.09c3.59,3.59 2.35,11 -1.48,11.13c-7.79,0 -11,-4.08 -8.53,-11.87c0.37,-1.61 1.24,-1.98 2.35,-2.35z" fill="#47aad2" fill-rule="evenodd" id="svg_60"/>
   <path class="cls-31" d="m59.65,154.95c7.67,-1.98 13.97,4.95 11.75,14.84c-0.62,2.23 -2.1,3.71 -4.33,4.33c-10.88,2.23 -15.21,-2.1 -12.98,-12.98c0.99,-3.09 2.23,-4.95 5.56,-6.18z" fill="#100e0d" fill-rule="evenodd" id="svg_62"/>
   <path class="cls-106" d="m59.65,159.9c8.66,-3.46 12.74,8.04 4.95,10.51c-7.17,2.6 -9.89,-8.16 -4.95,-10.51z" fill="#d04b69" fill-rule="evenodd" id="svg_63"/>
   <path class="cls-43" d="m101.69,84.48c1.48,-0.25 2.72,0.12 3.71,1.24c-3.46,5.32 -4.45,11.13 -3.09,17.31c11,20.9 24.23,40.18 39.57,58.11c0.62,4.33 -0.87,4.95 -4.33,1.85c-16.2,-14.59 -29.55,-31.28 -40.18,-50.08c-5.32,-10.63 -3.83,-20.15 4.33,-28.44z" fill="#f4f4ec" fill-rule="evenodd" id="svg_64"/>
   <path class="cls-86" d="m211.86,149.02c-0.37,0 -0.87,-0.25 -0.87,-0.49c6.31,-31.16 13.72,-62.56 20.52,-93.72c1.85,-3.71 4.7,-5.56 8.66,-5.56c-6.43,29.43 -14.1,58.85 -22.87,88.4c-0.87,4.33 -4.2,11.25 -5.44,11.38l0,0z" fill="#f3f1e6" fill-rule="evenodd" id="svg_65"/>
   <path class="cls-61" d="m148.67,174.73c6.55,0.37 9.52,3.71 8.66,9.89c-3.83,-2.6 -6.68,-5.93 -8.66,-9.89z" fill="#e8e5d3" fill-rule="evenodd" id="svg_68"/>
   <path class="cls-39" d="m68.31,188.34c25.1,0 44.14,10.63 57.37,32.15c2.1,3.96 3.59,6.92 5.69,11.38c1.24,3.09 2.6,6.31 2.6,9.64c-7.17,-4.57 -12.36,-6.92 -18.55,-9.27c-5.32,-1.85 -8.41,-3.59 -16.32,-3.46c-5.81,0 -10.14,0.74 -15.08,0.99c-6.06,0.25 -15.46,-1.73 -19.29,-2.35c-8.66,-2.47 -16.07,-12.86 -14.22,-24.11c1.98,-9.03 9.52,-14.34 17.93,-14.84l-0.12,0l0,-0.12z" fill="#0e110e" fill-rule="evenodd" id="svg_71"/>
   <path class="cls-54" d="m67.07,195.75c10.63,-5.19 41.54,8.41 53.78,28.44c0.87,1.98 1.36,2.84 1.24,4.95c-4.82,-3.09 -9.27,-5.81 -15.58,-6.18c-15.95,0.62 -35.61,1.98 -43.03,-3.34c-8.28,-7.42 -8.04,-19.04 3.59,-23.86z" fill="#52b779" fill-rule="evenodd" id="svg_72"/>
   <path class="cls-17" d="m67.56,199.46c1.36,-0.87 11,0 13.6,0.62c2.23,0.49 4.45,1.11 6.18,2.47c-5.32,0.37 -13.23,-0.62 -16.07,1.24c-2.97,2.84 -5.56,2.72 -8.66,3.09c0.25,-3.46 2.1,-6.31 4.95,-7.42z" fill="#e8f8eb" fill-rule="evenodd" id="svg_73"/>
   <path class="cls-30" d="m294.98,221.87c5.56,-0.87 12.86,-0.25 14.84,3.71c3.71,9.64 -0.25,15.33 -10.51,16.07c-9.03,-0.25 -12.24,-4.7 -9.89,-13.6c0.99,-2.97 2.6,-5.44 5.56,-6.18z" fill="#121411" fill-rule="evenodd" id="svg_105"/>
   <path class="cls-21" d="m297.45,225.58c4.82,-2.23 11.5,4.2 6.18,10.51c-4.57,4.7 -10.26,1.36 -9.89,-3.71c0.25,-2.84 0.87,-5.07 3.71,-6.8z" fill="#90c472" fill-rule="evenodd" id="svg_109"/>
   <path class="cls-6" d="m191.95,273.65c1.98,1.48 2.97,3.46 3.09,6.18c2.1,20.15 5.81,39.94 11.13,59.35c2.23,8.66 6.92,15.46 14.22,20.4c-4.95,1.36 -9.27,0.37 -12.98,-3.09c-4.57,-6.8 -7.91,-14.22 -9.89,-22.26c-4.33,-20.03 -6.18,-40.31 -5.56,-60.59z" fill="#f5f3ea" fill-rule="evenodd" id="svg_114"/>
   <path class="cls-15" d="m345.18,254.15c11.75,1.24 15.46,7.54 10.76,18.55c-2.84,7.67 -13.85,22.63 -15.7,22.87c-4.95,0.74 -12.98,-3.34 -14.22,-6.8c-0.87,-2.1 -0.99,-4.08 0,-6.18c0.49,-1.48 14.22,-14.22 16.07,-24.73c0.87,-2.97 1.73,-3.83 3.09,-3.71z" fill="#161513" fill-rule="evenodd" id="svg_124"/>
   <path class="cls-71" d="m345.92,260.09c3.83,-0.87 5.93,0.62 6.18,4.33c0.25,4.82 -6.92,20.52 -11.13,23.49c-3.71,2.84 -8.16,2.1 -11.13,-2.47c8.9,-6.06 14.34,-14.59 16.07,-25.35z" fill="#eaa840" fill-rule="evenodd" id="svg_125"/>
   <g id="svg_133" transform="rotate(-16.372, 287.015, 352.416) matrix(-1.23271, 0.0958473, -0.0958473, -1.23271, 575.995, 707.221)">
    <path class="cls-112" d="m205.82,285.77l3,0c-2,3.8 -4.4,6.4 -7.5,10c-2.3,2.7 -4.2,5.7 -5.5,9c-0.8,0.9 -1.8,1.2 -3,1c-0.3,-2.8 0.2,-5.5 1.5,-8c2.7,-5.2 6.5,-9.2 11.5,-12z" fill="#131313" fill-rule="evenodd" id="svg_23"/>
    <path class="cls-99" d="m222.82,285.77c2.1,-0.3 4.1,0 6,1c-6.6,4.4 -14.8,9.4 -18.5,15c-4.7,6.7 -8.9,13.7 -12.5,21c-1.2,-2.6 -1.3,-5.3 -0.5,-8c4.8,-13 13.3,-22.6 25.5,-29z" fill="#141413" fill-rule="evenodd" id="svg_25"/>
   </g>
   <g id="svg_6" transform="rotate(7.54823, 57.9825, 92.2638)">
    <path class="cls-40" d="m72.1,62.06l3.02,0c-1.81,4.2 -4.84,7.52 -7.56,11.72c-5.75,9.96 -8.06,20.12 -6.05,31.25c0.81,4.69 1.71,9.47 2.52,14.16c0,3.81 -1.21,4.3 -3.53,1.46c-8.97,-16.6 -8.06,-32.62 1.01,-48.83c2.62,-4.2 6.25,-7.42 10.58,-9.77z" fill="#0f0f0f" fill-rule="evenodd" id="svg_46"/>
    <path class="cls-28" d="m47.9,73.78c1.01,0 1.71,0.49 2.02,1.46c-0.6,2.15 -1.51,3.61 -2.32,6.35c-0.91,7.72 -0.91,15.63 -0.71,23.44l-4.03,0c-2.02,-7.03 -2.52,-14.16 -1.51,-21.49c0.91,-4.3 3.63,-7.03 6.55,-9.77z" fill="#101010" fill-rule="evenodd" id="svg_47"/>
   </g>
  </g>
  <ellipse cx="-643" cy="-127" fill="#FF0000" id="svg_4" rx="0" ry="1" stroke="#000000"/>
 </g>
</svg>