<?xml version="1.0" encoding="UTF-8"?>
<svg xmlns="http://www.w3.org/2000/svg" version="1.1" viewBox="0 0 1003.8 477.2">
  <defs>
    <style>
      .cls-1 {
        fill: #60bb76;
      }

      .cls-1, .cls-2, .cls-3, .cls-4, .cls-5, .cls-6, .cls-7, .cls-8, .cls-9, .cls-10, .cls-11, .cls-12, .cls-13, .cls-14, .cls-15, .cls-16, .cls-17, .cls-18, .cls-19, .cls-20, .cls-21, .cls-22, .cls-23, .cls-24, .cls-25, .cls-26, .cls-27, .cls-28, .cls-29, .cls-30, .cls-31, .cls-32, .cls-33, .cls-34, .cls-35, .cls-36, .cls-37, .cls-38, .cls-39, .cls-40, .cls-41, .cls-42, .cls-43, .cls-44, .cls-45, .cls-46, .cls-47, .cls-48, .cls-49, .cls-50, .cls-51, .cls-52, .cls-53, .cls-54, .cls-55, .cls-56, .cls-57, .cls-58, .cls-59, .cls-60, .cls-61, .cls-62, .cls-63, .cls-64, .cls-65, .cls-66, .cls-67, .cls-68, .cls-69, .cls-70, .cls-71, .cls-72, .cls-73, .cls-74, .cls-75, .cls-76, .cls-77, .cls-78, .cls-79, .cls-80, .cls-81, .cls-82, .cls-83, .cls-84, .cls-85, .cls-86, .cls-87, .cls-88, .cls-89, .cls-90, .cls-91, .cls-92, .cls-93, .cls-94, .cls-95, .cls-96, .cls-97, .cls-98, .cls-99, .cls-100, .cls-101, .cls-102, .cls-103, .cls-104, .cls-105, .cls-106, .cls-107, .cls-108, .cls-109, .cls-110, .cls-111, .cls-112, .cls-113, .cls-114, .cls-115, .cls-116, .cls-117, .cls-118, .cls-119, .cls-120, .cls-121, .cls-122, .cls-123 {
        fill-rule: evenodd;
      }

      .cls-2 {
        fill: #9e53ab;
      }

      .cls-3 {
        fill: #4eb878;
      }

      .cls-4 {
        fill: #14140f;
      }

      .cls-5 {
        fill: #0f0c0b;
      }

      .cls-6 {
        fill: #f5f3ea;
      }

      .cls-7 {
        fill: #f5f8f7;
      }

      .cls-8 {
        fill: #f1c23c;
      }

      .cls-9 {
        fill: #38a8db;
      }

      .cls-10 {
        fill: #30aede;
      }

      .cls-11 {
        fill: #141412;
      }

      .cls-12 {
        fill: #f9d418;
      }

      .cls-13 {
        fill: #0f1110;
      }

      .cls-14 {
        fill: #141311;
      }

      .cls-15 {
        fill: #161513;
      }

      .cls-16 {
        fill: #0b0c0b;
      }

      .cls-17 {
        fill: #e8f8eb;
      }

      .cls-18 {
        fill: #12100f;
      }

      .cls-19 {
        fill: #121211;
      }

      .cls-20 {
        fill: #e53444;
      }

      .cls-21 {
        fill: #90c472;
      }

      .cls-22 {
        fill: #eaf5f4;
      }

      .cls-23 {
        fill: #0e0d0e;
      }

      .cls-24 {
        fill: #e5dde8;
      }

      .cls-25 {
        fill: #f0eeee;
      }

      .cls-26 {
        fill: #eee1e2;
      }

      .cls-27 {
        fill: #171410;
      }

      .cls-28 {
        fill: #101010;
      }

      .cls-29 {
        fill: #121415;
      }

      .cls-30 {
        fill: #121411;
      }

      .cls-31 {
        fill: #100e0d;
      }

      .cls-32 {
        fill: #111;
      }

      .cls-33 {
        fill: #171311;
      }

      .cls-34 {
        fill: #ebf4f5;
      }

      .cls-35 {
        fill: #a2559d;
      }

      .cls-36 {
        fill: #141213;
      }

      .cls-37 {
        fill: #685d2e;
      }

      .cls-38 {
        fill: #120f0e;
      }

      .cls-39 {
        fill: #0e110e;
      }

      .cls-40 {
        fill: #0f0f0f;
      }

      .cls-41 {
        fill: #141617;
      }

      .cls-42 {
        fill: #e7d447;
      }

      .cls-43 {
        fill: #f4f4ec;
      }

      .cls-44 {
        fill: #38aedf;
      }

      .cls-45 {
        fill: #0b0c0d;
      }

      .cls-46 {
        fill: #111210;
      }

      .cls-47 {
        fill: #47aad2;
      }

      .cls-48 {
        fill: #f7f3dc;
      }

      .cls-49 {
        fill: #0c0e0f;
      }

      .cls-50 {
        fill: #df3747;
      }

      .cls-51 {
        fill: #e83543;
      }

      .cls-52 {
        fill: #100f0f;
      }

      .cls-53 {
        fill: #43a1d6;
      }

      .cls-54 {
        fill: #52b779;
      }

      .cls-55 {
        fill: #11110e;
      }

      .cls-56 {
        fill: #161614;
      }

      .cls-57 {
        fill: #f4be1a;
      }

      .cls-58 {
        fill: #111410;
      }

      .cls-59 {
        fill: #090b09;
      }

      .cls-60 {
        fill: #eeecf0;
      }

      .cls-61 {
        fill: #e8e5d3;
      }

      .cls-62 {
        fill: #0e1113;
      }

      .cls-63 {
        fill: #46a0d6;
      }

      .cls-64 {
        fill: #181717;
      }

      .cls-65 {
        fill: #f1f1f2;
      }

      .cls-66 {
        fill: #0e0f0f;
      }

      .cls-67 {
        fill: #ebf4ed;
      }

      .cls-68 {
        fill: #ebf6f6;
      }

      .cls-69 {
        fill: #de4f50;
      }

      .cls-70 {
        fill: #1b1918;
      }

      .cls-71 {
        fill: #eaa840;
      }

      .cls-72 {
        fill: #f7f8ec;
      }

      .cls-73 {
        fill: #6eb774;
      }

      .cls-74 {
        fill: #151514;
      }

      .cls-75 {
        fill: #f38827;
      }

      .cls-76 {
        fill: #eef1f2;
      }

      .cls-77 {
        fill: #f8d41c;
      }

      .cls-78 {
        fill: #3ba8d4;
      }

      .cls-79 {
        fill: #141616;
      }

      .cls-80 {
        fill: #e4e4e0;
      }

      .cls-81 {
        fill: #c7cf49;
      }

      .cls-82 {
        fill: #47a7d4;
      }

      .cls-83 {
        fill: #f2f1f4;
      }

      .cls-84 {
        fill: #e6c05e;
      }

      .cls-85 {
        fill: #0e1114;
      }

      .cls-86 {
        fill: #f3f1e6;
      }

      .cls-87 {
        fill: #111212;
      }

      .cls-88 {
        fill: #151410;
      }

      .cls-89 {
        fill: #0e0d0c;
      }

      .cls-90 {
        fill: #e5ebe8;
      }

      .cls-91 {
        fill: #dd3744;
      }

      .cls-92 {
        fill: #f1ebec;
      }

      .cls-93 {
        fill: #181615;
      }

      .cls-94 {
        fill: #0d0b0a;
      }

      .cls-95 {
        fill: #f8f7ee;
      }

      .cls-96 {
        fill: #131211;
      }

      .cls-97 {
        fill: #f6f6e9;
      }

      .cls-98 {
        fill: #0d0b0c;
      }

      .cls-99 {
        fill: #141413;
      }

      .cls-100 {
        fill: #9355a1;
      }

      .cls-101 {
        fill: #56bc7d;
      }

      .cls-102 {
        fill: #f3f3e1;
      }

      .cls-103 {
        fill: #161616;
      }

      .cls-104 {
        fill: #111110;
      }

      .cls-105 {
        fill: #141313;
      }

      .cls-106 {
        fill: #d04b69;
      }

      .cls-107 {
        fill: #ecca31;
      }

      .cls-108 {
        fill: #c5da5a;
      }

      .cls-109 {
        fill: #0f1010;
      }

      .cls-110 {
        fill: #131614;
      }

      .cls-111 {
        fill: #161516;
      }

      .cls-112 {
        fill: #131313;
      }

      .cls-113 {
        fill: #0f100f;
      }

      .cls-114 {
        fill: #e9b231;
      }

      .cls-115 {
        fill: #31afe0;
      }

      .cls-116 {
        fill: #f7f4dc;
      }

      .cls-117 {
        fill: #e34246;
      }

      .cls-118 {
        fill: #111313;
      }

      .cls-119 {
        fill: #e87862;
      }

      .cls-120 {
        fill: #63b1c8;
      }

      .cls-121 {
        fill: #f0bd23;
      }

      .cls-122 {
        fill: #e2f1f6;
      }

      .cls-123 {
        fill: #b2d339;
      }
    </style>
  </defs>
  <!-- Generator: Adobe Illustrator 28.7.7, SVG Export Plug-In . SVG Version: 1.2.0 Build 194)  -->
  <g>
    <g id="katman_1">
      <g id="katman_1-2" data-name="katman_1">
        <path class="cls-94" d="M210.9,87.6c9-1,27.8,1.3,41,6.5,10.4,4.4,14.4,12.1,13,19-3.9,19.6-9.4,38.8-16.5,57.5-8.7,23.3-17.3,46.7-26,70-2.1,8.4.1,18.1,2,27,4.2,21.7,8.6,43.4,13,65,5.9,28.7-5.6,44.6-34.5,47.5-20,3.2-32.5-4.9-37.5-24.5-4.2-23.8-7.2-47.8-9-72-1.6-8.8-3.6-17.4-6-26-1.8-4.3-4.2-8.3-7-12-21.8-24.1-42.5-49.1-62-75-9.3-14-8.7-27.3,2-40,8.6-8.4,18.4-14.9,29.5-19.5,10.7-3,19.8-.5,27.5,7.5,8,11.3,14.5,23.2,21.5,35.9,4.4,7.4,8.4,13.8,14,20.1,4.1-18.2,7.6-36.5,10.5-55,1.7-9.5,5.7-19.1,11.5-25.5,2.6-2.6,6.5-5.7,13-6.5Z"/>
        <path class="cls-75" d="M254.6,106.9h.1c-7.3-7.1-16.8-10.1-27-11.4-5.2-.8-10.8-1-14-.2-3.3.9-9.1,2.2-12.2,8.9-.8,1.2-3.1,7.2-4.6,14-1,4.5-2.6,13.3-3.8,20.3-1.2,7-2,9.7-2,9.7-.5,1.9-1,5.5-1.8,9.5-1.9,10.2-4.3,24.1-5.2,27.2-.7,2.8-2.5,6.7-4,7.5-1.5.5-2.4,0-3.5-1.5-6.9-8.8-13.6-17.9-19.7-27.2-7.5-13.3-20.6-37.1-22.3-38.8-8.2-9.8-17.4-10.6-27.5-2.5-9.5,5.5-21.1,16.6-22.5,22.5-1.4,5.9,1.3,11.9,5,17,19.2,24.6,39.2,48.6,60,72,9.4,11.2,14.7,24.2,16,39,2.1,22.7,4.7,45.4,8,68,.8,7,2.8,13.7,6,20,4.4,7.5,12.2,7.7,21.5,6.5,23.5-3.2,31.8-13.1,26.5-35.5-5.3-25.6-10.3-51.3-15-77-.7-6.3-2-12.6,0-19,10.3-28.3,20.7-56.7,31-85,4.4-12.9,8.2-23.7,11.8-36.9,1.1-3.6.4-5.8-.8-7.1Z"/>
        <path class="cls-59" d="M733.8,105.1c-3.5-17-12.7-35.1-23.1-44-14.5-11.2-24.7-8.4-30.9,8.8-9.3,14.3-21.2,26.2-35.5,35.5-9.4,3.6-26.2,10-27.6,11.9-2.2,2.4-3.4,5.2-3.8,8.5-1.6.7-3.3,1.4-4.1,3.1-2.4,6.7-1.8,13.2,1.9,19.5,2.8,4.2,7.2,5.5,12.3,3.8,1.9.8,4.6,2.8,5.7,2.8,2,.1,3.8,0,5.7.3,3.9,7.6,7.8,17.5,10.2,25.7,7.4,2.7,12.1,2.9,22.6.6,1.1-3.5,1.2-7.9-.8-10.9-2.1-.9-4.5-1.2-6-3.5-1-2-2-4-2.8-6,4.9-4.3,7.4-9.8,7.5-16.3,7.5-.4,15.1-.4,22.6,0,9.6.7,18.6,3.8,27.7,6.8,10.6,2.4,17.6-3.7,19.8-14.6,1.5-9,1.9-21.5-1.3-32h-.1ZM656,156.2c-.6-3.3-.8-6.7-.6-10.1,1.2.2,2.2,0,3.1-.6,1.8,4,1,7.5-2.5,10.7h0Z"/>
        <path class="cls-20" d="M649.1,147.9h2.5c.2,7.9,2.4,15.3,6.6,22,1.4,1.6,3.6,2.4,5.7,3.1.3,1.9.4,3.8.3,5.7-9.1,1.3-11.1,1.1-16.3-.6-2.4-9.1-5.2-17.8-10.1-25.8,3.8-1.5,7.6-2.9,11.3-4.4Z"/>
        <path class="cls-59" d="M663.5,173.7c-9.1,2.2-17.8,5.7-26,10.5-10.4,7.4-13.6,17.2-9.5,29.5,2.2,6.2,6.4,10.4,12.5,12.5-10.4,4.9-18.7,12.1-25,21.5-6.2,10.5-8.5,21.8-7,34,.9,12.2,5.9,22.4,15,30.5,20,14.5,41.1,16.3,63.5,5.5,3.9,3.9,8.4,7,13.5,9.5,15.9,7.6,36.9-9.5,37.5-25.5.7-25.3,1-50.7,1-76-2.6-24.2-15.1-40.9-37.5-50-13.9-3.6-24.7-4.8-38-2h0ZM673.7,275.9c-3.4,6-8.7,9.8-15.5,6.5-10.6-6.4-9.3-18.7,1-22.5,11.9-2.7,19.3,6.3,14.5,16ZM679.8,225.9c-1.9-.6-5-1.4-7.5-2-4.6-.8-7.4-1.9-12.1-2.4h0c0-.1,0-.1,0-.1,1.5-1.6,3.1-2.8,5-3.5,7-1.7,12,.7,15,7v.4c0,.4-.2.6-.5.5h0Z"/>
        <path class="cls-89" d="M813,163.6c36.4-.4,52.4,17.6,49,54-2.5,12.9-10.4,19.7-23.5,20.5-17.7,2.8-26.8-4.7-27.5-22.5,0-1.8-3.7-2.2-5.4-.7-6.6,5.6-9.2,12-9.6,20.7.3,19.5,1.5,39,3.5,58.5,1.6,16.2-5.4,26.2-21,30-9.5,1.5-18.4,1.5-27-4-6.2-5-9.4-11.5-9.5-19.5,0-34.5-.8-69-2.5-103.5-1.3-14.2,4.7-23.5,18-28,6.7-1.8,12.7-1.6,19,0,4.4,1.5,8,4,11,7.5,7.7-5.7,13.7-11.9,25.5-13Z"/>
        <path class="cls-57" d="M836.7,176.4c-18.1-6.8-33.2-3.3-45.8,11.2-2.6,2.8-4.9,5.8-7,9-1.5-.9-2.1-1.8-2.5-4-1.1-10.8-4.7-15.4-15-15-7.3-.3-16,1.5-16,9,0,36.7.5,73.3,1,110-.4,12.8,5.8,19.1,18.5,19,14.7.6,21.7-6.4,21-21-1.2-14-2.3-28-3.5-42-.7-15.5,0-28.4,8-41,7.2-9.3,16.2-9.4,24-1,2.8,4.2.7,8.9,3,14,2.7,3.8,6.3,5.5,11,5,13.3-.3,16.3-5.3,19-13.4,1.1-4,1.6-7.4,1.5-11.1-.6-12.8-4.3-22.9-17.2-28.7h0Z"/>
        <path class="cls-5" d="M954.9,207.1c-17-13.1-36.5-17.8-57.9-16.9-5.4.5-8.4,1.4-13.1,2.9-7.7,3.1-14.7,8-17.5,15.5-2.9,11,0,20,8.5,27-7.2,1.1-13.8,3.6-20,7.5-22.1,17.2-29.1,38.3-19.3,65.2,12.5,24.9,36.9,33.6,65.3,27.3,4.2,7.1,9.3,12.6,18,15.5,18.7,3.7,30.9-3.4,36.5-21.5,4-20.2,8.7-40.2,14-60,7-23.8,2.3-46-14.5-62.5h0ZM898.4,290.6c-1.8,7.5-10.1,8.7-17.5,5.5-4.9-2.8-5.7-8.1-4.5-13.5.8-3.5,1.4-6.5,6.5-8,12.7-2.3,17.7,3.7,15.5,16ZM912.9,243.6c-6-3.4-12-6.4-18-9,4.3-.2,8.7,0,13,.5,4.2,1.6,5.9,4.5,5,8.5Z"/>
        <path class="cls-50" d="M961.9,239.6c-2.3-13-8.9-23.2-20-30.5-19.3-10.5-43.2-13.7-60-5-6.5,4.2-8.7,10-6.5,17.5,1.2,4.4,4,6.7,8.5,7,5.1,0,8.3-3.3,13-4,4.9-.7,9.4.2,14,1.5,8.3,2.9,12.7,8.7,13,17.5,0,5.8-1.3,11.7-3,17-.5,1.5-2.1,0-3-.5-3.5-3.2-6.2-6.1-11-9-18.3-9.8-41.8-7.5-52,4-15.4,16.7-19.5,35.9-6.4,56.4,15.3,18.9,37.2,21.5,59.9,12.1.8.1,1.4.5,2,1-.5,8.8,3.3,14.6,11.5,17.5,9.1,2.4,19.4-1.9,21.5-7.5,2.3-6.6,4.3-13.2,6-20,3.1-15.8,7.1-31,10.5-46,2.2-11.2,2.7-17.7,2-29ZM898.4,290.6c-1.8,7.5-10.1,8.7-17.5,5.5-4.9-2.8-5.7-8.1-4.5-13.5.8-3.5,1.4-6.5,6.5-8,12.7-2.3,17.7,3.7,15.5,16Z"/>
        <path class="cls-3" d="M669.5,182.1c-10.2,1.6-19.9,5.1-29,10.5-5.9,4.7-7.4,10.5-4.5,17.5,1.4,4.1,4.2,6.4,8.5,7,3.5,0,13.2-5.9,20-8.5,6.5-2.2,13.8-.8,18,4,7.2,8.4,8.7,17.6,4.5,27.5-8.6-5.2-17.7-9.5-28-9-20.8,1.6-34.5,12.2-41,32-5.2,25.7,4.6,42.6,29.5,50.5,15.9,2.8,30.2-.7,43-10.5,1,3.4.2,3.8,2.8,9,1.5,2.8,3.6,3.8,6.2,5.1,12.2,5.9,24.4,1.9,27.5-14.1,1.1-4.3,1-43,2.5-64.5,0-39.9-25.6-61.4-60-56.5ZM673,276.1c-3.4,6-8.7,9.8-15.5,6.5-10.6-6.4-9.3-18.7,1-22.5,11.9-2.7,19.3,6.3,14.5,16Z"/>
        <path class="cls-16" d="M355.4,230.6c-7.9-34.4-40.6-53.8-64.5-48-11.6,2.3-22.6,6.4-33,12.5-7.5,4.5-15.8,12.6-17.5,18.5-3.4,11.8,2.8,25.6,17.5,30.5-17.5,13.6-24.7,31.4-21.5,53.5,2.3,15.4,10.1,26.9,23.5,34.5,22.5,9.7,43.1,6.8,62-8.5,8.2,7.1,17.5,9,28,5.5,11.5-4.6,17.5-13.1,18-25.5,0-3-8.5-48.6-12.5-73ZM283.9,230.6c3.9-2,9.9.4,13,5-6.9-.2-13.9,0-21,.5,2.6-2.1,5.2-3.9,8-5.5ZM298.4,292.6c-4.9,6.5-16.8,4.6-19.5-7.5-1-6.1,3.5-12.5,8-12.5,9.2,0,19,8.6,11.5,20Z"/>
        <path class="cls-2" d="M359.8,301.5c-4.2-21.9-8.1-43.9-11.5-66-1.5-7.3-3.9-14.3-7-21-10.2-17.9-25.7-25.9-46.5-24-14.4,2.6-27.4,8.5-39,17.5-5.1,4-6.9,9.2-5.5,15.5,2.2,8.6,7.4,11.4,15.5,8.5,3.3-1.2,10-8.3,16-11,6.6-2.2,12.9-1.5,19,2,4.4,2.4,9.8,14.9,9,24.5-5-1.1-10-2.2-15-3.5-10.3-1.9-20.1.4-29,6-15.4,10.8-21.9,25.6-19.5,44.5,2.2,14.9,10.4,25.1,24.5,30.5,21.2,5.3,39.2-.2,54-16.5,2.1,4.9,5.4,8.8,10,11.5,8.4,5,27.1-5.5,25-18.5ZM298.4,292.6c-4.9,6.5-16.8,4.6-19.5-7.5-1-6.1,3.5-12.5,8-12.5,9.2,0,19,8.6,11.5,20Z"/>
        <path class="cls-16" d="M601.9,324.1c-12.4-8.7-26.4-12.3-41-14,21.9-7.4,36.6-21.9,44-43.5,3.2-10.5,3.4-21.2,3-32-1.1-13.6-6.1-25.6-15-36,5.1-3.3,9.9-7,14.5-11,4.4-4,4.8-10.4,3-16-4.2-13.6-13.4-20.1-27.5-19.5-9.8.5-19.9,13.2-24,25.5-33.4-4.4-57.9,8.3-73.5,38,1.3-7.2,1.7-14.6,1-22-.9-5.3-3.9-6.8-7.5-9.5-5.9-3.5-12.2-5.9-19-7-13.4-1.9-22.3,3.6-26.5,16.5-3.7,16.2-8,32.2-13,48-5.4-15.4-9.8-31-13-47-1.3-5.1-3.4-9.1-7.5-12.5-10.2-6.5-20.9-7.2-32-2-13.1,5.1-18.3,14.6-15.5,28.5,2.2,9.1,4.9,18.1,8,27,10.8,24.1,20.6,48.6,29.5,73.5-1.1,4.8-3,9.3-5.5,13.5-9.7,16.5-19.7,32.8-30,49-.8,5.1-.5,10.1,1,15,5.1,10.4,13.3,17.3,24.5,20.5,11.7,2.8,20.9-.7,27.5-10.5,28.2-48.2,51.2-98.9,69-152-.7,12.5,1.3,24.5,6,36,5.4,12.4,13.9,21.9,25.5,28.5-.9,3.4-1.2,6.9-1,10.5-18.6,6.1-34.9,18.8-40.5,36-6.8,21-5.5,40.5,8.5,59,17.5,19.3,38.9,27.8,65,25.5,39.7-2.8,67.3-21.9,78.5-60.5,5.4-21.7,0-41.1-16.5-55.5ZM564.2,372.6c-5.8,7.1-12.9,11.5-21.9,13.4-11.7,1.9-25.3-2.9-28.1-12.4-1.7-6.4,2-10.6,7.5-13.5,4.3-1.9,8.6-3.8,13-5.5,1.5-.7,1.6-1.9,2-3,8.7.8,18.4,1.2,25,6.5,4.3,4.1,5.2,11,2.5,14.5Z"/>
        <path class="cls-115" d="M584.5,326.7c-10.5-4-21.9-5.8-33-8-6.1-1.4-7-13.2-2-15,37.7-11.1,53.6-36.3,47.5-75.5-2.4-10.2-8.2-17.2-15-26-2.2-3.6-2.4-7.2,1.5-9.5,8.1-3.9,16.3-8.4,16.5-11.5,1.2-13.3-5-19.7-18.5-19-3.8.4-5.3,3.7-7.5,7-4.2,6.6-7.8,12.8-11.2,19.9-3.7-.6-7-1.4-11-1.8-10.6-.9-17.2-.9-25.3,2.4-30,14.8-43.2,39-39.5,72.5,2.2,20.6,13,34.1,32.5,40.5,1.4.6,1.6,1.9,1,3-2.4,3.8-5.7,6.9-5,12.5.3,2.5.9,4.8,2,7-21.3,6.2-40.6,20.9-44.5,40-4.8,23.9,2.7,42.7,22.5,56.5,17.6,10.8,37.7,12.2,58,7,30.1-6.5,48.6-24.6,55.5-54.5,4.4-22-4.3-38-24.5-47.5ZM564.4,372.6c-5.8,7.1-12.9,11.5-21.9,13.4-11.7,1.9-25.3-2.9-28.1-12.4-1.7-6.4,2-10.6,7.5-13.5,4.3-1.9,8.6-3.8,13-5.5,1.5-.7,1.6-1.9,2-3,8.7.8,18.4,1.2,25,6.5,4.3,4.1,5.2,11,2.5,14.5Z"/>
        <path class="cls-109" d="M747.8,52.5c4-.2,4.7,1.3,2.2,4.4-4.1,5.1-8.4,10-12.9,14.8-1.2,1.2-2.7,1.7-4.4,1.6,0-1.6.2-3,.9-4.4,4.6-5.5,9.3-11,14.1-16.3h.1Z"/>
        <path class="cls-11" d="M641,78.8c5.4-.8,8.2,2.9,6.3,8.8-6.3,1-11.1,4.3-14.4,9.7-3.4.6-5.1-.9-5-4.4.2-4.3,8.5-13.3,13.2-14.1h0Z"/>
        <path class="cls-113" d="M767.2,78.8c3.1,0,4.2,1.2,3.1,4.1-8.7,4.1-17.7,7.2-27,9.1-.2-1.4.2-2.5,1.3-3.5,7.6-3.2,15.2-6.4,22.6-9.7h0Z"/>
        <path class="cls-42" d="M641.6,81.4c3.4-.6,4.8,1.8,3.8,5-2.9,0-5.7.6-8.2,2.2-2.4,1.6-4.2,4.2-6,6.6-.9-1.1-1.2-2.4-.6-3.8,2.8-4.6,5.8-9,11-10.1h0Z"/>
        <path class="cls-58" d="M454.9,9.6c6.6-.3,12.4,6.8,10.5,9-5.2,3.9-10.2,13.7-11.5,14-7.7,1.8-11.2-1.2-10.5-9,1-4.6,8.9-14,11.5-14Z"/>
        <path class="cls-108" d="M456.9,13.6c2.4-.7,4.1.7,5,3-5.3,2.8-8.9,6.9-11,12.5-2,.5-3.8-.4-4-2.5,1.1-5.7,5.2-9.8,10-13Z"/>
        <path class="cls-33" d="M891.9,30.6c12.2.3,17.8,8.3,11.5,17-5.9,7.7-17.5,10.3-20,3-3.8-9.6-1.6-19.2,8.5-20Z"/>
        <path class="cls-112" d="M274.9,32.6h3c-2,3.8-4.4,6.4-7.5,10-2.3,2.7-4.2,5.7-5.5,9-.8.9-1.8,1.2-3,1-.3-2.8.2-5.5,1.5-8,2.7-5.2,6.5-9.2,11.5-12Z"/>
        <path class="cls-117" d="M891.9,34.6c7.4-.5,11.5,5.8,8.5,10-3.9,5.2-11.7,8.4-14,3-1.4-5.8-.2-12.4,5.5-13Z"/>
        <path class="cls-99" d="M291.9,32.6c2.1-.3,4.1,0,6,1-6.6,4.4-14.8,9.4-18.5,15-4.7,6.7-8.9,13.7-12.5,21-1.2-2.6-1.3-5.3-.5-8,4.8-13,13.3-22.6,25.5-29Z"/>
        <path class="cls-46" d="M212.9,48.6c5.9-1.4,16,2.7,22.5,8,2.9,3.2.7,9.3-3.5,13-1.8,1.3-3.9,1.2-6,.5-6-2.9-16-8.3-16.5-10.5-1.1-4.5,0-10.1,3.5-11Z"/>
        <path class="cls-73" d="M213.9,52.6c1.3-2.1,13.5,2.8,18,8.5,1.2,1.7-1.9,6.1-3,5.5-1.4-1-13.2-6.8-14-7.5-2.2-1.9-2.5-4.1-1-6.5Z"/>
        <path class="cls-32" d="M746.5,109.6c8.2.7,16.4,1.7,24.5,2.8,1.8.8,2.3,2.2,1.6,4.1-.8.4-1.6.6-2.5.6-8.1-1.1-16.1-2.7-23.9-5-.4-.9-.3-1.7.3-2.5h0Z"/>
        <path class="cls-36" d="M89.9,75.6c1.1,0,2.1,0,3,.5,4.8,5.4,10.8,8.7,18,10,1.3,9-2.7,12.7-12,11-5.7-2-10.5-5.2-14.5-9.5-1.1-5.4.7-9.4,5.5-12Z"/>
        <path class="cls-35" d="M89.9,80.6c1.1,0,2.1,0,3,.5,4,4.7,9,7.7,15,9-1.3,3.2-3.7,4.2-7,3-5.6-1.3-9.9-4.3-13-9,.5-1.3,1.1-2.5,2-3.5Z"/>
        <path class="cls-110" d="M927.3,120.7c4.4-1.7,11.5,1.7,14,8,.8,2.1-1.4,3.4-3,4.5-5.8,4-13.1,14-16,13.5-4.3-1-7-3.7-8-8-.4-2.8,6.5-14,13-18Z"/>
        <path class="cls-1" d="M928.2,123.9c1.6-1.6,6.2,1.1,8,4,.9,1.8-10.5,13.9-14.4,13.2-3.1-1.1-3.1-3.4-2.1-6.2,2.3-4.1,5.1-7.8,8.5-11Z"/>
        <path class="cls-56" d="M162.9,102.6c8.3.5,13.1,6.9,11.5,13-2,5.4-6.2,7.7-11.5,5.5-4.7-2.2-6.6-12.5,0-18.5Z"/>
        <path class="cls-113" d="M348.9,25.6c24.3-3.2,55.3,3.6,68,13.5,8.2,6.2,15.6,15.9,20,26.5,22.6-7.8,44.7-8.8,67.4,0,27.5,12.6,31.2,47.4,17.1,60-5.6,5.2-11.4,10.1-17.5,14.5,2.8,8.5,7.7,15.7,14.5,21.5.7,1,.7,2,0,3-5.7,2.4-11.5,2.6-17.5.5-9.1-2.7-17.1-7.2-24-13.5-17,7.2-34.5,11.3-53,8.5-16.9-3.6-29.1-13.1-36.5-28.5-16.4,5.6-33.3,7.5-50.5,5.5-9.8,14.7-22.4,21.9-39.9,23.9-1.7-.3-2-.4-2.1-1.4,4-7.4,7.5-15.1,10.5-23,.5-2.3.7-4.6.5-7-21.1-6.5-32.1-20.8-33-43,1.7-16.5,9-30,22-40.5,14.1-10.2,34.5-17.7,54-20.5h0Z"/>
        <path class="cls-10" d="M460.4,66.6c5.1-.8,10.7-1.1,15.1-1,6.7.2,11.9,1.5,18.9,3.5,23.3,7.5,31.8,23,25.5,46.5-3.1,9.1-12.5,15.3-21.5,20-1.2,4.5-.7,8.8,1.5,13,2.1,4.1,4.6,7.9,7.5,11.5-4.9.5-9.6-.5-14-3-5.7-3.1-10.9-6.9-15.5-11.5-16.5,7.2-33.4,11.5-51.5,9.5-25-4.6-37.3-25.8-33.5-45.5,1.4-12.5,18-27.4,34.5-33.5,10.9-4.1,21.6-7.7,33-9.5h0Z"/>
        <path class="cls-85" d="M459.9,104.6c5.9-4,13.5,3.6,7,9.5-8.3,5.1-13.2-4.4-7-9.5Z"/>
        <path class="cls-49" d="M484.9,98.6c6.8-1.8,9.7,4.7,7,10.5-4.3,6.3-10.4.2-9.5-7.5.3-1.6.7-2.4,2.5-3Z"/>
        <path class="cls-12" d="M354.9,31.6c16.1-1.1,31.8,1.1,47,6.5,9.9,3.9,22.4,15.8,28,29-13.3,5.2-24.8,13.1-34.5,23.5-7.6,10.4-10.8,21.9-9.5,34.5-17.2,6-34.9,8.1-53,6.5-6.3,11.7-15.6,19-28,22,5.3-8.6,7.5-18,6.5-28-24.9-7.7-34.6-26.7-29.5-49.4.7-3.1,2.8-8.3,6.6-13.1s12.8-14,20.4-17.9c14.5-7.5,30-11.8,46-13.5h0Z"/>
        <path class="cls-4" d="M350.9,77.6c4.7-2.1,10.7,4.5,7.5,10-2.9,4.5-11.8,2.2-11.5-3.5.2-3,1.6-5.1,4-6.5Z"/>
        <path class="cls-55" d="M322.9,79.6c7.7-1.3,12.5,5.7,7,11.5-4.6,4.5-11.8,1.4-10.5-7.5.6-2.8,1.1-3.6,3.5-4Z"/>
        <path class="cls-88" d="M377.9,74.6c7.1-.6,10.3,6.5,7.5,10-4.3,5.2-9.4,3.5-11.5-3.5-.5-2.2,1.1-6.1,4-6.5Z"/>
        <path class="cls-18" d="M851.1,102.9c4.7-1.9,12.5-1,15.9,5.4.4,1,.5,3.4-.6,4.4-5.8,5-10.5,16.9-13.5,17.5-9.7,1.9-13.9-1.9-12.5-11.5,1.4-6.5,7.4-14.6,10.7-15.7h0Z"/>
        <path class="cls-45" d="M435.9,110.6c5.3-3.1,12.5,2.3,8.5,8-3,3.5-6.9,4.4-10,1-2.2-3.5-1.7-6.5,1.5-9Z"/>
        <path class="cls-81" d="M163.9,106.6c6.5,1.3,9.4,7.8,5,10.5-4,1.9-8.2-2.3-6.5-8.5.6-1.7.8-2.1,1.5-2Z"/>
        <path class="cls-107" d="M852.9,106.6c3.8-.5,9,.8,9,4s-4.4,4.9-6.3,7.6c-1.6,3.1-4,7.7-5.7,7.9-5,.7-6.8-1.5-5.5-6.5,1.8-5,4.7-12.1,8.5-13Z"/>
        <path class="cls-40" d="M75.9,115.6h3c-1.8,4.3-4.8,7.7-7.5,12-5.7,10.2-8,20.6-6,32,.8,4.8,1.7,9.7,2.5,14.5,0,3.9-1.2,4.4-3.5,1.5-8.9-17-8-33.4,1-50,2.6-4.3,6.2-7.6,10.5-10Z"/>
        <path class="cls-28" d="M51.9,127.6c1,0,1.7.5,2,1.5-.6,2.2-1.5,3.7-2.3,6.5-.9,7.9-.9,16-.7,24h-4c-2-7.2-2.5-14.5-1.5-22,.9-4.4,3.6-7.2,6.5-10Z"/>
        <path class="cls-79" d="M801.9,133.6c6,.2,10.1,3.4,10,9.5s-.5,2.4-1,3.5c-1.9,3-7,3.5-10.8,4.8-4.2,2.9-7.6,6.1-12.2,5.7-4.5-1.2-4.9-7-2.5-11.5,3.1-5.5,9.4-11.6,16.5-12Z"/>
        <path class="cls-105" d="M572.7,67.3c5.5-1.2,10.5,2,12.7,7.8.5,1.4-.2,2.7-1.5,4.9-1.9,3.3-4.4,6.3-6.8,9.3-4.3,4.4-9.6,3.8-14-1-2.6-3.7-2-7.3,0-11,2.7-3.9,4.3-8,9.5-10h0Z"/>
        <path class="cls-82" d="M801.2,138.3c6.3-2.2,9.4,6.5,5.1,6.4-5.6,1-10.4,3.5-14.5,7.5-2.5,2.1-4.3-.3-3.5-3.5,2.2-5.6,7.5-7.6,12.9-10.4Z"/>
        <path class="cls-100" d="M573.7,72.3c3.9-3.2,8.5,2.4,6.5,6-2.1,3.1-3.9,8.1-7.5,8.5-4.3.6-6.5-1.2-6.5-5.5s4.8-6.2,7.5-9Z"/>
        <path class="cls-29" d="M13,137.7c1.5-1.5,4.9-.6,7,.3,1.2.6,4.1,2.2,5.9,3.6s4.3,3.1,4.5,4.9c1.1,8.2-4,12.5-11.5,10.3-9.9-4.5-11.5-13.1-5.9-19.1Z"/>
        <path class="cls-63" d="M14.7,141.9c.2-.4.8-.5,1.2-.4,3.2,1.1,6.3,3.3,8.9,5.6,2.9,3.5,1.7,6.6-2.5,6.5-6.2-.7-9.5-5.1-7.6-11.7h0Z"/>
        <path class="cls-52" d="M835.9,154.6c14.5-.8,25,5.2,31.5,18,.5,2.3.7,4.6.5,7-1.9.2-3.4-.5-4.5-2-5.7-10.8-14.5-17.6-26.5-20.5-.8-.7-1.1-1.5-1-2.5Z"/>
        <path class="cls-93" d="M540.9,148.6c8.9-1.9,15.4,3.5,12.5,12-3.8,9.7-14.2,10-17,1-1.6-5.6-.6-11.6,4.5-13Z"/>
        <path class="cls-114" d="M541.9,152.6c8.3.5,10.9,4.5,5,10.2-4.5,3.9-7.9-2.4-6.5-8.2.4-1.4.8-2,1.5-2Z"/>
        <path class="cls-14" d="M345.9,158.6c8.7-1.8,15.2,3.7,12.5,10-2.9,5.5-11.3,7.4-13.5,5.5-5.5-5.6-4.8-13.1,1-15.5Z"/>
        <path class="cls-84" d="M346.9,162.6c2-2,6.2-.7,7,.5,1.7,3.1,1.2,5.5-2,7-6.3,2.2-8.9-3.5-5-7.5Z"/>
        <path class="cls-118" d="M264.9,159.6c2.8-1.7,15.7,4.6,11.5,15-2.2,4.4-5.8,6.3-10.5,4.5-5.5-2.9-7.4-7.4-5.5-13.5.8-2.6,2.3-4.6,4.5-6Z"/>
        <path class="cls-47" d="M265.7,163.9c2.5-.4,4.4.8,6.2,2.5,2.9,2.9,1.9,8.9-1.2,9-6.3,0-8.9-3.3-6.9-9.6.3-1.3,1-1.6,1.9-1.9Z"/>
        <path class="cls-48" d="M759.9,185.6h3c-.2,2.1-.7,4.1-1.5,6-.3,16.3-.7,32.7-1,49-.3,3.4-1,6.7-2,10-1.1-15.3-2.3-30.6-3.5-46-.5-7,1.2-13.3,5-19Z"/>
        <path class="cls-31" d="M67.9,194.6c6.2-1.6,11.3,4,9.5,12-.5,1.8-1.7,3-3.5,3.5-8.8,1.8-12.3-1.7-10.5-10.5.8-2.5,1.8-4,4.5-5Z"/>
        <path class="cls-106" d="M67.9,198.6c7-2.8,10.3,6.5,4,8.5-5.8,2.1-8-6.6-4-8.5Z"/>
        <path class="cls-43" d="M101.9,137.6c1.2-.2,2.2.1,3,1-2.8,4.3-3.6,9-2.5,14,8.9,16.9,19.6,32.5,32,47,.5,3.5-.7,4-3.5,1.5-13.1-11.8-23.9-25.3-32.5-40.5-4.3-8.6-3.1-16.3,3.5-23Z"/>
        <path class="cls-86" d="M191,189.8c-.3,0-.7-.2-.7-.4,5.1-25.2,11.1-50.6,16.6-75.8,1.5-3,3.8-4.5,7-4.5-5.2,23.8-11.4,47.6-18.5,71.5-.7,3.5-3.4,9.1-4.4,9.2h0Z"/>
        <path class="cls-96" d="M977.9,198.6c10.1-.8,15,6,12.5,14-1.3,3.4-10.7,5.7-15,0-3.3-5.5-1.8-13.7,2.5-14Z"/>
        <path class="cls-8" d="M979.9,202.6c6.8.5,9.3,4.2,5,9.5-2.6,2.1-6.9-.2-7-5,0-1.8.6-4.7,2-4.5Z"/>
        <path class="cls-61" d="M139.9,210.6c5.3.3,7.7,3,7,8-3.1-2.1-5.4-4.8-7-8Z"/>
        <path class="cls-24" d="M302.4,201.1c2.5-.4,4.5.2,6,2-2.8,1.5-4.8.8-6-2Z"/>
        <path class="cls-83" d="M284.9,197.6c3.9-.9,7.3-.5,10.9.4,1.9.4,3.7,1.3,5.1,2.6-6.9.6-17.5,3.3-20,4.5-5.7,2.7-14.6,7.3-22,10.5-.2-3.3,1.1-5.9,4-7.6,6.8-4.9,14.1-8.3,22-10.4Z"/>
        <path class="cls-39" d="M74.9,221.6c20.3,0,35.7,8.6,46.4,26,1.7,3.2,2.9,5.6,4.6,9.2,1,2.5,2.1,5.1,2.1,7.8-5.8-3.7-10-5.6-15-7.5-4.3-1.5-6.8-2.9-13.2-2.8-4.7,0-8.2.6-12.2.8-4.9.2-12.5-1.4-15.6-1.9-7-2-13-10.4-11.5-19.5,1.6-7.3,7.7-11.6,14.5-12h-.1Z"/>
        <path class="cls-54" d="M73.9,227.6c8.6-4.2,33.6,6.8,43.5,23,.7,1.6,1.1,2.3,1,4-3.9-2.5-7.5-4.7-12.6-5-12.9.5-28.8,1.6-34.8-2.7-6.7-6-6.5-15.4,2.9-19.3Z"/>
        <path class="cls-17" d="M74.3,230.6c1.1-.7,8.9,0,11,.5,1.8.4,3.6.9,5,2-4.3.3-10.7-.5-13,1-2.4,2.3-4.5,2.2-7,2.5.2-2.8,1.7-5.1,4-6Z"/>
        <path class="cls-90" d="M691.9,192.6c2.2-.2,3.8.6,5,2.5-2.8,1.1-4.4.2-5-2.5Z"/>
        <path class="cls-7" d="M662.1,186.6c7.1-2,13.5-1,20,.5,1.9.4,3.6,1.2,5,2.5-13.1,0-25.6,2.7-37.5,8-1.3.3-2.5-.6-2.5-2,.5-1.8,1.8-2.5,3-3.5,3.6-2.8,8-4,12-5.5Z"/>
        <path class="cls-78" d="M613.9,128.5c1.7,6.7,4,13.2,6.9,19.5-4.4-.3-7.2-2.6-8.5-6.9-1.7-4.6-1.2-8.8,1.6-12.6Z"/>
        <path class="cls-77" d="M640.3,110.2c-.2,12.1,3.8,22.7,11.9,31.7l-20.1,7.5c-.8.4-1.7.4-2.5,0-3.7-2.3-6.4-5.6-7.9-9.7-2.5-5.6-3.6-11.5-3.1-17.6.5-1.1,1.2-2.1,2.2-2.8,6.5-3.1,13-6.1,19.5-9.1h0Z"/>
        <path class="cls-27" d="M633.4,117.2c1.7-.3,2.4.4,2.2,1.9-3.4,1.9-6.8,3.7-10.4,5.3-.8,1.5-.8,3.1,0,4.7-.3,1-1,1.3-1.9.9-1.1-2.3-1.4-4.7-.9-7.2,3.7-2,7.3-3.9,11-5.7h0Z"/>
        <path class="cls-9" d="M692.5,94.5h10.7c-1.1,7.7,1.2,14.1,6.9,19.2-3,2.2-6.1,4.4-9.1,6.6-3.9-8.2-6.7-16.8-8.5-25.8h0Z"/>
        <path class="cls-119" d="M706.3,93.9c2.1,0,3.7,1.1,4.7,2.5,3.1,3.9,4.1,8.3,3.1,13.2-.4,1-.8,1.5-1.6,1.9-2.8-1.2-4.5-3.3-5.5-6.3-1.2-4-1.7-7.4-.8-11.3h0Z"/>
        <path class="cls-25" d="M673,94.5c-4.8,7-11.1,12.3-18.8,16-1.5.9-3,1-4.4.3,7.7-5.6,15.3-11.4,22.6-17.6.5.3.7.7.6,1.3h0Z"/>
        <path class="cls-121" d="M714.8,69.4c-3.6-5.2-8.3-9-14.1-11.3-2.4-.8-5.2-1.7-7.5-.3-4.9,2.9-7.6,7.2-8.5,12.9-1.6,15.2.5,29.8,6.3,44,4.3,12.3,11.6,22.4,21.7,30.5,8.1,5.4,16.4,1,18.8-9.7,3.8-23.2-2.6-46.1-16.6-66h-.1ZM717,142.6c-4.7-1.6-8.6-4.4-11.6-8.5-12.8-18.2-18.2-38.6-17.1-61,.4-3.9,1.8-7.1,4.2-10,2.4-2,5.9-1.7,8.8.3-1.9.2-3.8-.2-5.7.6-1.3.6-2.2,1.5-2.8,2.8-2.7,7.8-2.8,15.8-1.6,23.9,6.1-.3,12.1-.4,18.2-.3,7.3,5.5,9.9,12.7,7.9,21.7-4.7,4.1-9.6,8-14.8,11.6,3.2,5.9,7.3,10.9,12.6,15.1,4.1,2.4,7.8,1.9,11-1.6.3.1.4.4.3.6-1.8,4.1-4.9,5.7-9.4,4.7h0Z"/>
        <path class="cls-70" d="M728.3,117.2c.2,1.4,0,2.7-.6,3.8-.3-5.7-1.3-11.2-3.1-16.6.2-.8.6-1,1.3-.6,1.6,4.3,2.5,8.8,2.5,13.5h-.1Z"/>
        <path class="cls-37" d="M720.7,92c.4,0,.6-.2.6-.6"/>
        <path class="cls-51" d="M681.2,92.7c-.3-5.2-.6-10.5-.9-15.7-10,12.7-21.7,23.4-35.2,32-.5,3.5-.4,6.8.3,10.1.7,4.6,2,9,4.1,13.2,1.7,3.2,4.2,5.8,7.2,7.9,5.7-.6,11.5-.9,17.3-.9,9.6.2,19.1,1,28.6,2.2-11.6-14.2-18.8-30.4-21.4-48.7h0ZM654.1,110.6c-1.5.9-3,1-4.4.3,7.7-5.6,15.3-11.4,22.6-17.6.5.3.7.7.6,1.3-4.8,7-11.1,12.3-18.8,16h0Z"/>
        <path class="cls-26" d="M675.5,88.3c1.2.4,1.5,1.3.9,2.5-.6.5-1.4.7-2.2.6,0-1.3.4-2.3,1.3-3.1Z"/>
        <path class="cls-64" d="M721.4,91.4c0,.4-.2.6-.6.6-2.9-6.4-6.3-12.6-10.1-18.5,1.6.3,3,1.3,4.1,2.8,2.7,4.8,4.9,9.8,6.6,15.1Z"/>
        <path class="cls-123" d="M379.9,185.6c6.9-.8,12.4,1.5,16.5,7,4.7,15.2,9,30.5,13,46,3.3,9.2,7,18.2,11,27,3.4-4.9,6.1-10.2,8-16,4.9-15.4,8.9-31.1,12-47,1.3-4.5,2.9-8.8,5-13,2.7-2.4,5.8-3.4,9.5-3,8.8,0,16.3,3,22.5,9,.7,1.8,1.2,3.6,1.5,5.5-16.3,60.1-39.1,117.6-68.5,172.5-4.2,7.9-9,15.4-14.5,22.5-4.4,2.3-9.1,2.9-14,2-6.3-2.7-11.8-6.5-16.5-11.5-3.5-6.2-3.2-12.2,1-18,10.5-14.2,19.9-29.2,28-45,5-8,5.7-16.3,2-25-8.8-22.1-17.8-44.1-27-66-5-11.2-7.7-22.9-8-35,.7-1.3,1.3-2.7,2-4,5.1-3.6,10.6-6.3,16.5-8Z"/>
        <path class="cls-102" d="M391.9,265.6c1.6-.1,2.8.5,3.5,2,.7,2,.7,4,0,6-2-2.3-3.2-5-3.5-8Z"/>
        <path class="cls-23" d="M568.9,228.6c6.6-.3,10.1,2.7,10.5,9-.7-.9-1.5-1.5-2.5-2-.9,8.9-1.8,17.7-5.5,26-9,19.9-27.3,23.3-46.5,10.5-7.9-6.7-12.6-15.2-14-25.5,13.2,3.1,26.2,2.3,39-2.5,7.9-2.8,14.7-6.1,21-11-1.1-1.3-1.7-2.8-2-4.5Z"/>
        <path class="cls-91" d="M553.9,262.6c14-3.9,13.4.4,4.8,8-6.2,5.1-15,4.9-22.8,2,3.2-5.1,7.9-7.3,14-6.5,1.2-1.4,2.5-3,4-3.5Z"/>
        <path class="cls-65" d="M568.9,239.6c.8-.5,2.5.2,2,1-1.5,2.6-3.1,5.1-5,7.5-5.6,7.9-35.4,11.5-41,9-1.8-.7-3.5-1.7-5-3,17.9,0,34.2-4.9,49-14.5Z"/>
        <path class="cls-72" d="M373.9,193.6h3c-2.2,5.7-2.5,11.5-1,17.5,3.6,14.2,8.5,28.1,14.5,41.5.8,2.1.6,4.1-.5,6-9-14.7-15.8-30.3-20.5-47-1.7-6.9-.2-12.9,4.5-18Z"/>
        <path class="cls-62" d="M519.9,221.6c3.8-1.1,7.7-.4,10,2.5,1.5,1.9,2.5,4.1,2,6.5-.3,1.1-6.4-3.1-9-3-2.3.2-10.5,7.3-11,6-1.9-5,2.6-9.9,8-12Z"/>
        <path class="cls-68" d="M528.9,194.6c1.3-.5,3.7-1.4,4.3-.7.9,1.2.3,3.1-1.3,3.7-12.6,5.8-22.1,14.8-28.5,27-1.9,6.1-4,12.1-6.5,18-.8-23.6,9.8-39.6,32-48Z"/>
        <path class="cls-62" d="M553.9,215.6c2.1-1,6.8-.4,10,.5,2.5.6,4.1,2.1,5,4.5.3,1-1.7,2.6-3,2-2.8-1.6-5.8-2.2-9-1.5-3.1,1.2-4.5,4.3-6.5,6.5-.8.3-1.7,0-2-1-.8-5,1-8.7,5.5-11Z"/>
        <path class="cls-95" d="M449.9,194.6h3c-4.3,21-10.7,41.3-19,61-.4-3.8.5-7.4,2.5-11,2.1-11.7,4.4-23.4,7-35,1.1-5.5,3.3-10.5,6.5-15Z"/>
        <path class="cls-34" d="M582.9,167.6c1.2-.2,2.2.1,3,1-5.8,5.9-10.6,12.6-14.5,20-.7,1-1.6,1.1-2.5.5,2.1-8.9,6.8-16.1,14-21.5Z"/>
        <path class="cls-76" d="M680.9,291.6c1.6-.2,2.9.3,4,1.5-4.9,6.8-11.6,9.8-20,9,6.2-2.3,11.6-5.8,16-10.5Z"/>
        <path class="cls-103" d="M813.9,306.6c9.9.8,14.4,9.2,9,15-6.8,5.8-14.5,2.1-14.5-9,.3-3.5,2.8-5.8,5.5-6Z"/>
        <path class="cls-60" d="M311.9,300.6h3c-1.1,8.1-5.8,13.1-14,15-1.4-.2-1.9-.9-1.5-2,5.7-2.9,9.9-7.2,12.5-13Z"/>
        <path class="cls-120" d="M814.1,310.6c4.2-3,8.7,3.9,5,9.5-3.8,4.2-10.8-4.2-5-9.5Z"/>
        <path class="cls-38" d="M761.9,335.6c7.2-1,12.5,3.6,10.5,9-2.4,4.7-9.1,6.5-11.5,4.5-4.1-4.9-3.8-12.2,1-13.5Z"/>
        <path class="cls-13" d="M818.9,336.6c17.5.2,33.3,5.3,47.9,14.8,11.2,8.9,17.7,28.4,15.6,34.2-3.2,12.5-17.5,16.3-27.8,7-1.8-2.1-3.4-4.9-3.9-8-3-20-14.6-34.6-32.3-44-1.3-1.4-1.3-3.3.5-4Z"/>
        <path class="cls-30" d="M339.9,338.6c4.5-.7,10.4-.2,12,3,3,7.8-.2,12.4-8.5,13-7.3-.2-9.9-3.8-8-11,.8-2.4,2.1-4.4,4.5-5Z"/>
        <path class="cls-69" d="M763.9,338.6c5.6-1.3,7.2,3.9,3,6.5-5.9,4.3-9.3-4.9-3-6.5Z"/>
        <path class="cls-80" d="M899.9,311.6c1.7-.2,3.4,0,5,.5-6.1,6.3-13.4,8.1-22,5.5,6.2-.8,11.8-2.8,17-6Z"/>
        <path class="cls-92" d="M940.4,224.4c-1.1.7-2.4-.9-2.9-1.5-1.7-2.1-1.3-3.3,1-3.5,1.8,0,3.2,3.4,1.9,5ZM931.9,215.3c-11.6-5.8-23.6-7.4-36-5-2.8.3-7,.7-8-1,0-1.8,1-2.8,3-3.5,12.8-3.7,25.1-2.4,37,4,2,1.5,3.3,3.3,4,5.5Z"/>
        <path class="cls-21" d="M341.9,341.6c3.9-1.8,9.3,3.4,5,8.5-3.7,3.8-8.3,1.1-8-3,.2-2.3.7-4.1,3-5.5Z"/>
        <path class="cls-97" d="M396.9,330.6c.5,0,.9.4,1,1-6.9,16.1-14.6,31.8-23,47-1.3-4-1.1-8,.5-12,6.9-12.2,14.1-24.2,21.5-36Z"/>
        <path class="cls-66" d="M785.9,346.6c25.9,6.1,44.8,21.1,56.5,45,5.8,14.9,6,30.2-3.3,42.7-10.8,12.4-23.1,12.2-34.7.3-4.3-5.9-5.1-11.8-3.7-19,7.2-24.1,1.9-45.1-14.3-64-1.5-2.3-.7-3.3-.5-5Z"/>
        <path class="cls-101" d="M833.9,344.6c19.7,1.3,33.8,10.9,42.5,29,2.2,5,2.5,10.5-1,15-5.9,5.3-14.6,7.6-18,0-2.9-10.8-5-19.6-12.7-31-3.6-5.6-6.1-9.5-10.8-13Z"/>
        <path class="cls-32" d="M966.9,329.6h3c-.7,19.2-10.3,31-29,35.5-4.3.5-8.7.7-13,.5-.2-1.3.2-2.5,1-3.5,19.6-2.7,32.2-13.6,38-32.5Z"/>
        <path class="cls-6" d="M174.9,290.6c1.6,1.2,2.4,2.8,2.5,5,1.7,16.3,4.7,32.3,9,48,1.8,7,5.6,12.5,11.5,16.5-4,1.1-7.5.3-10.5-2.5-3.7-5.5-6.4-11.5-8-18-3.5-16.2-5-32.6-4.5-49Z"/>
        <path class="cls-22" d="M495.9,345.6c1.2-.2,2.2.1,3,1-17.2,21.5-17.2,43,0,64.5-3.8-.3-7-2.2-9.5-5.5-8.9-13.3-10.9-27.6-6-43,2.8-6.7,7-12.3,12.5-17Z"/>
        <path class="cls-67" d="M864.9,362.6c1.5,0,2.5.6,3.5,2,4.3,5.3,6.3,11.3,6,18-.7.9-1.5,1.5-2.5,2-.2-3.3,0-6.6-1.5-11-1.8-4.6-3.7-7.4-5.5-11Z"/>
        <path class="cls-111" d="M964.9,357.6c2.7.6,3.6,2.2,2.5,5-6.9,9.8-16.3,13.8-28,12-.7-.8-.5-1.5.5-2,10.1-2.2,18.5-7.2,25-15Z"/>
        <path class="cls-19" d="M449.9,366.6c1,0,1.8.2,2.5,1-.2,14.5,2.5,28.5,8,42,3.5,5.9,6.6,11.9,9.5,18-2.6-.5-5-1.6-7-3.5-14.1-17-18.4-36.1-13-57.5Z"/>
        <path class="cls-44" d="M799.9,359.6c.8-1.1,1.8-1.2,3-.5,19.2,9.6,31.4,24.7,36.5,45.5,1.1,7.9,0,15.6-3,23-4.4,8.5-11.5,12.4-20.5,8.5-7.3-4.4-10.3-10.9-9-19.5,1.6-12,2.8-24,1.5-36-1.2-7.8-4.6-14.5-8.5-21Z"/>
        <path class="cls-41" d="M900.7,381.9c8.1,0,16,6.6,10.6,18.7-3.1,7.2-12.2,15.3-15.5,15-4.9-.5-7.5-6.1-4.5-12,2.1-2.8,4.4-4.6,5-7,.8-5.2,1.6-14.1,4.4-14.7Z"/>
        <path class="cls-53" d="M902.1,385.5c1.4-1.4,8.1,3.9,6.3,10.1-1.7,8.2-12.9,16.2-14.5,15-2.1-1.8,4-8.1,6.5-12,1.8-4,1.3-7.8,1.2-11.7s0-1,.5-1.4Z"/>
        <path class="cls-87" d="M852.9,407.6c1.9,0,3.1,1.1,3.5,3,2.4,10.1,0,18.7-7,26,1-4.7,1.7-8,3-13,1-5.3.7-10.7.5-16Z"/>
        <path class="cls-122" d="M828.9,395.6c2,1.2,3.5,2.8,4.5,5,3.8,9,2.9,17.6-2.2,25.9-1.2,1.8-3,3.1-4.3,3.1-1.3-.1-2-.9-2-2,4.4-4.9,6.6-11.2,6.2-18-.2-4.9-.8-9.4-2.2-14Z"/>
        <path class="cls-15" d="M187.9,394.6c9.5,1,12.5,6.1,8.7,15-2.3,6.2-11.2,18.3-12.7,18.5-4,.6-10.5-2.7-11.5-5.5-.7-1.7-.8-3.3,0-5,.4-1.2,11.5-11.5,13-20,.7-2.4,1.4-3.1,2.5-3Z"/>
        <path class="cls-71" d="M188.5,399.4c3.1-.7,4.8.5,5,3.5.2,3.9-5.6,16.6-9,19-3,2.3-6.6,1.7-9-2,7.2-4.9,11.6-11.8,13-20.5Z"/>
        <path class="cls-104" d="M598.9,426.6h3c0,3.9-1.6,7.3-4.5,10-15.5,17.4-34.4,23.7-56.5,19,.5-1,1.1-1.8,2-2.5,22.2-1.6,40.9-10.5,56-26.5Z"/>
        <path class="cls-74" d="M599.9,443.6c1.5,0,2.5.6,3,2-6.7,12.1-16.8,17.8-30.5,17-.6-.9-.5-1.8.5-2.5,10.6-3,19.6-8.5,27-16.5Z"/>
        <path class="cls-16" d="M566.9,350.1c-5.6-5.5-24.1-8-37-8.5-1.9,1.6-2.3,3.4-1,5.5-5,1.2-9.7,3.2-14,6-14,10.5-14.6,21.8-2,34,9.8,9.3,35.6,9.6,53-2,12.8-11.5,13.1-23.1,1-35ZM564.4,372.6c-5.8,7.1-12.9,11.5-21.9,13.4-11.7,1.9-25.3-2.9-28.1-12.4-1.7-6.4,2-10.6,7.5-13.5,4.3-1.9,8.6-3.8,13-5.5,1.5-.7,1.6-1.9,2-3,8.7.8,18.4,1.2,25,6.5,4.3,4.1,5.2,11,2.5,14.5Z"/>
        <path class="cls-98" d="M310.4,278.6c-.5-8.7-13.9-16.6-26.5-15-5,.6-8,4.1-10.5,8-7.7,14.7-4.2,25.9,10.5,33.5,9.6,4.2,27.7-7.7,26.5-26.5ZM298.4,292.6c-4.9,6.5-16.8,4.6-19.5-7.5-1-6.1,3.5-12.5,8-12.5,9.2,0,19,8.6,11.5,20Z"/>
        <path class="cls-59" d="M682.8,264.9c-4.6-10.9-12.9-16.4-24.7-14.4-11.3,3.1-16.2,12.9-15,25,3.4,12.7,11.7,17.6,24.7,14.9,12.1-4.3,18-13.4,15-25.5ZM673.1,275.5c-3.3,5.8-8.5,9.4-15,6.2-10.2-6.1-9-17.9,1-21.6,11.5-2.6,18.7,6,14,15.4Z"/>
        <path class="cls-116" d="M839.7,191.9c.3,1.8-1.8,3-3,1.5-6.9-8.1-15.5-10.7-26-8-3,1.3-6,2.4-9,3.5-.9.1-2.9,0-2-1,11-10.7,22.8-11.7,35.5-3,2.9,2.6,3.6,4.3,4.5,7Z"/>
        <path class="cls-5" d="M907.6,278.6c-3.2-11.1-13.1-15.5-24.8-14-5.8,1.2-10.7,5.3-13.5,11-5.5,13.3-1.4,27.5,10.5,30.5,20.5,3.2,30.8-6.9,27.8-27.5ZM898.4,290.6c-1.8,7.5-10.1,8.7-17.5,5.5-4.9-2.8-5.7-8.1-4.5-13.5.8-3.5,1.4-6.5,6.5-8,12.7-2.3,17.7,3.7,15.5,16Z"/>
      </g>
    </g>
  </g>
</svg>