<?xml version="1.0"?>
<svg width="400" height="400" xmlns="http://www.w3.org/2000/svg" xmlns:svg="http://www.w3.org/2000/svg" style="transition: none;" version="1.1">
 <g class="layer">
  <title>Layer 1</title>
  <g id="svg_7">
   <path class="cls-94" d="m243.57,3.16c11.64,-1.35 35.96,1.76 53.03,8.78c13.45,5.94 18.62,16.33 16.81,25.64c-5.04,26.45 -12.16,52.37 -21.34,77.61c-11.26,31.45 -22.38,63.03 -33.64,94.48c-2.72,11.34 0.13,24.43 2.58,36.44c5.43,29.29 11.12,58.58 16.81,87.74c7.63,38.74 -7.24,60.19 -44.63,64.11c-25.87,4.32 -42.04,-6.62 -48.51,-33.07c-5.43,-32.13 -9.31,-64.52 -11.64,-97.18c-2.07,-11.88 -4.66,-23.48 -7.76,-35.1c-2.33,-5.81 -5.43,-11.2 -9.06,-16.2c-28.2,-32.53 -54.98,-66.28 -80.21,-101.23c-12.03,-18.9 -11.26,-36.84 2.58,-53.99c11.12,-11.34 23.8,-20.11 38.16,-26.32c13.84,-4.05 25.61,-0.68 35.57,10.12c10.35,15.25 18.76,31.32 27.81,48.46c5.69,9.99 10.87,18.62 18.11,27.13c5.3,-24.56 9.83,-49.27 13.58,-74.23c2.2,-12.83 7.38,-25.79 14.88,-34.42c3.36,-3.5 8.41,-7.7 16.81,-8.78l0.05,0.01z" fill="#0d0b0a" fill-rule="evenodd" id="svg_2"/>
   <path class="cls-75" d="m300.1,28.04l0.13,0c-9.45,-9.58 -21.73,-13.63 -34.92,-15.39c-6.73,-1.08 -13.97,-1.35 -18.11,-0.27c-4.27,1.21 -11.77,2.97 -15.78,12.01c-1.04,1.62 -4.01,9.72 -5.95,18.9c-1.3,6.07 -3.36,17.95 -4.92,27.4c-1.55,9.45 -2.58,13.09 -2.58,13.09c-0.65,2.57 -1.3,7.42 -2.33,12.83c-2.46,13.77 -5.57,32.53 -6.73,36.71c-0.91,3.78 -3.23,9.04 -5.18,10.12c-1.94,0.68 -3.11,0 -4.53,-2.02c-8.92,-11.88 -17.6,-24.16 -25.49,-36.71c-9.7,-17.95 -26.65,-50.07 -28.85,-52.37c-10.61,-13.23 -22.5,-14.31 -35.57,-3.37c-12.29,7.42 -27.3,22.4 -29.11,30.37c-1.81,7.96 1.68,16.06 6.47,22.95c24.84,33.21 50.71,65.6 77.62,97.18c12.16,15.12 19.02,32.66 20.69,52.64c2.72,30.64 6.08,61.28 10.35,91.79c1.04,9.45 3.62,18.49 7.76,27c5.69,10.12 15.78,10.39 27.81,8.78c30.4,-4.32 41.14,-17.69 34.29,-47.91c-6.85,-34.55 -13.33,-69.24 -19.41,-103.94c-0.91,-8.5 -2.58,-17.01 0,-25.64c13.33,-38.2 26.77,-76.54 40.1,-114.73c5.69,-17.41 10.61,-31.99 15.26,-49.8c1.42,-4.86 0.51,-7.83 -1.04,-9.58l0.01,0z" fill="#f38827" fill-rule="evenodd" id="svg_3"/>
   <path class="cls-43" d="m102.57,70.66c1.55,-0.27 2.85,0.13 3.88,1.35c-3.62,5.81 -4.66,12.15 -3.23,18.9c11.51,22.82 25.35,43.86 41.4,63.44c0.65,4.73 -0.91,5.4 -4.53,2.02c-16.95,-15.93 -30.92,-34.15 -42.04,-54.67c-5.57,-11.6 -4.01,-22 4.53,-31.05l-0.01,0.01z" fill="#f4f4ec" fill-rule="evenodd" id="svg_64"/>
   <path class="cls-86" d="m217.83,141.12c-0.39,0 -0.91,-0.27 -0.91,-0.53c6.6,-34.02 14.35,-68.29 21.47,-102.31c1.94,-4.05 4.92,-6.07 9.06,-6.07c-6.73,32.13 -14.75,64.24 -23.93,96.5c-0.91,4.73 -4.39,12.28 -5.69,12.42l0,0l0,-0.01z" fill="#f3f1e6" fill-rule="evenodd" id="svg_65"/>
   <path class="cls-61" d="m151.72,169.19c6.85,0.4 9.96,4.05 9.06,10.8c-4.01,-2.84 -6.99,-6.47 -9.06,-10.8z" fill="#e8e5d3" fill-rule="evenodd" id="svg_68"/>
   <path class="cls-6" d="m197,277.17c2.07,1.62 3.11,3.78 3.23,6.75c2.2,22 6.08,43.6 11.64,64.79c2.33,9.45 7.24,16.88 14.88,22.27c-5.18,1.48 -9.7,0.4 -13.58,-3.37c-4.78,-7.42 -8.28,-15.52 -10.35,-24.3c-4.53,-21.87 -6.47,-44.01 -5.82,-66.14l-0.01,0.01z" fill="#f5f3ea" fill-rule="evenodd" id="svg_114"/>
   <g id="svg_133" transform="matrix(-1.20916, 0.479711, -0.459752, -1.26166, 654.328, 681.838)">
    <path class="cls-112" d="m169.72,300.56l3,0c-2,3.8 -4.4,6.4 -7.5,10c-2.3,2.7 -4.2,5.7 -5.5,9c-0.8,0.9 -1.8,1.2 -3,1c-0.3,-2.8 0.2,-5.5 1.5,-8c2.7,-5.2 6.5,-9.2 11.5,-12z" fill="#131313" fill-rule="evenodd" id="svg_23"/>
    <path class="cls-99" d="m186.72,300.56c2.1,-0.3 4.1,0 6,1c-6.6,4.4 -14.8,9.4 -18.5,15c-4.7,6.7 -8.9,13.7 -12.5,21c-1.2,-2.6 -1.3,-5.3 -0.5,-8c4.8,-13 13.3,-22.6 25.5,-29z" fill="#141413" fill-rule="evenodd" id="svg_25"/>
   </g>
   <g id="svg_6" transform="matrix(1.03718, 0.143403, -0.137436, 1.08221, -27.9093, 7.00572)">
    <path class="cls-40" d="m103.1,24.68l3.02,0c-1.81,4.2 -4.84,7.52 -7.56,11.72c-5.75,9.96 -8.06,20.12 -6.05,31.25c0.81,4.69 1.71,9.47 2.52,14.16c0,3.81 -1.21,4.3 -3.53,1.46c-8.97,-16.6 -8.06,-32.62 1.01,-48.83c2.62,-4.2 6.25,-7.42 10.58,-9.77l0.01,0.01z" fill="#0f0f0f" fill-rule="evenodd" id="svg_46"/>
    <path class="cls-28" d="m78.9,36.4c1.01,0 1.71,0.49 2.02,1.46c-0.6,2.15 -1.51,3.61 -2.32,6.35c-0.91,7.72 -0.91,15.63 -0.71,23.44l-4.03,0c-2.02,-7.03 -2.52,-14.16 -1.51,-21.49c0.91,-4.3 3.63,-7.03 6.55,-9.77l0,0.01z" fill="#101010" fill-rule="evenodd" id="svg_47"/>
   </g>
  </g>
 </g>

</svg>